<svg width="192" height="32" viewBox="0 0 192 32" fill="none" xmlns="http://www.w3.org/2000/svg">
<path d="M55.1093 1.74536C55.4804 1.01811 56.5196 1.01811 56.8907 1.74536L60.5651 8.9453C60.7104 9.23002 60.983 9.42812 61.2987 9.47832L69.2817 10.748C70.0881 10.8762 70.4092 11.8645 69.8322 12.4422L64.1201 18.1616C63.8942 18.3878 63.7901 18.7083 63.8399 19.0241L65.0993 27.0087C65.2265 27.8152 64.3858 28.426 63.6581 28.0558L56.4534 24.3907C56.1685 24.2457 55.8315 24.2457 55.5466 24.3907L48.3419 28.0558C47.6142 28.426 46.7735 27.8152 46.9007 27.0087L48.1601 19.0241C48.2099 18.7083 48.1058 18.3878 47.8799 18.1616L42.1678 12.4422C41.5908 11.8645 41.9119 10.8762 42.7183 10.748L50.7013 9.47832C51.017 9.42812 51.2896 9.23002 51.4349 8.9453L55.1093 1.74536Z" fill="#ED0F01"/>
<path d="M95.1093 1.74536C95.4804 1.01811 96.5196 1.01811 96.8907 1.74536L100.565 8.9453C100.71 9.23002 100.983 9.42812 101.299 9.47832L109.282 10.748C110.088 10.8762 110.409 11.8645 109.832 12.4422L104.12 18.1616C103.894 18.3878 103.79 18.7083 103.84 19.0241L105.099 27.0087C105.226 27.8152 104.386 28.426 103.658 28.0558L96.4534 24.3907C96.1685 24.2457 95.8315 24.2457 95.5466 24.3907L88.3419 28.0558C87.6142 28.426 86.7735 27.8152 86.9007 27.0087L88.1601 19.0241C88.2099 18.7083 88.1058 18.3878 87.8799 18.1616L82.1678 12.4422C81.5908 11.8645 81.9119 10.8762 82.7183 10.748L90.7013 9.47832C91.017 9.42812 91.2896 9.23002 91.4349 8.9453L95.1093 1.74536Z" fill="#ED0F01"/>
<path d="M135.109 1.74536C135.48 1.01811 136.52 1.01811 136.891 1.74536L140.565 8.9453C140.71 9.23002 140.983 9.42812 141.299 9.47832L149.282 10.748C150.088 10.8762 150.409 11.8645 149.832 12.4422L144.12 18.1616C143.894 18.3878 143.79 18.7083 143.84 19.0241L145.099 27.0087C145.226 27.8152 144.386 28.426 143.658 28.0558L136.453 24.3907C136.169 24.2457 135.831 24.2457 135.547 24.3907L128.342 28.0558C127.614 28.426 126.774 27.8152 126.901 27.0087L128.16 19.0241C128.21 18.7083 128.106 18.3878 127.88 18.1616L122.168 12.4422C121.591 11.8645 121.912 10.8762 122.718 10.748L130.701 9.47832C131.017 9.42812 131.29 9.23002 131.435 8.9453L135.109 1.74536Z" fill="#ED0F01"/>
<path d="M15.1093 1.74536C15.4804 1.01811 16.5196 1.01811 16.8907 1.74536L20.5651 8.9453C20.7104 9.23002 20.983 9.42812 21.2987 9.47832L29.2817 10.748C30.0881 10.8762 30.4092 11.8645 29.8322 12.4422L24.1201 18.1616C23.8942 18.3878 23.7901 18.7083 23.8399 19.0241L25.0993 27.0087C25.2265 27.8152 24.3858 28.426 23.6581 28.0558L16.4534 24.3907C16.1685 24.2457 15.8315 24.2457 15.5466 24.3907L8.34194 28.0558C7.61421 28.426 6.77352 27.8152 6.90073 27.0087L8.16012 19.0241C8.20992 18.7083 8.10578 18.3878 7.87989 18.1616L2.16779 12.4422C1.59082 11.8645 1.91193 10.8762 2.71828 10.748L10.7013 9.47832C11.017 9.42812 11.2896 9.23002 11.4349 8.9453L15.1093 1.74536Z" fill="#ED0F01"/>
<path d="M175.109 1.74536C175.48 1.01811 176.52 1.01811 176.891 1.74536L180.565 8.9453C180.71 9.23002 180.983 9.42812 181.299 9.47832L189.282 10.748C190.088 10.8762 190.409 11.8645 189.832 12.4422L184.12 18.1616C183.894 18.3878 183.79 18.7083 183.84 19.0241L185.099 27.0087C185.226 27.8152 184.386 28.426 183.658 28.0558L176.453 24.3907C176.169 24.2457 175.831 24.2457 175.547 24.3907L168.342 28.0558C167.614 28.426 166.774 27.8152 166.901 27.0087L168.16 19.0241C168.21 18.7083 168.106 18.3878 167.88 18.1616L162.168 12.4422C161.591 11.8645 161.912 10.8762 162.718 10.748L170.701 9.47832C171.017 9.42812 171.29 9.23002 171.435 8.9453L175.109 1.74536Z" fill="#ED0F01"/>
</svg>
