<svg width="185" height="26" viewBox="0 0 185 26" fill="none" xmlns="http://www.w3.org/2000/svg">
<path d="M13.476 20L7.96 10.676L12.412 8.044L19.72 20H13.476ZM0.988 20V0.399999H6.504V20H0.988ZM4.908 12.496V8.016H12.02V12.496H4.908ZM12.944 10.788L7.82 10.228L13.84 0.399999H19.664L12.944 10.788ZM28.4203 20.252C26.759 20.252 25.2843 19.916 23.9963 19.244C22.7083 18.572 21.691 17.648 20.9443 16.472C20.2163 15.2773 19.8523 13.9147 19.8523 12.384C19.8523 10.8533 20.2163 9.5 20.9443 8.324C21.691 7.148 22.7083 6.23333 23.9963 5.58C25.2843 4.908 26.759 4.572 28.4203 4.572C30.0817 4.572 31.5563 4.908 32.8443 5.58C34.151 6.23333 35.1683 7.148 35.8963 8.324C36.6243 9.5 36.9883 10.8533 36.9883 12.384C36.9883 13.9147 36.6243 15.2773 35.8963 16.472C35.1683 17.648 34.151 18.572 32.8443 19.244C31.5563 19.916 30.0817 20.252 28.4203 20.252ZM28.4203 16.024C29.0363 16.024 29.5777 15.884 30.0443 15.604C30.5297 15.324 30.9123 14.9133 31.1923 14.372C31.4723 13.812 31.6123 13.1493 31.6123 12.384C31.6123 11.6187 31.4723 10.9747 31.1923 10.452C30.9123 9.91067 30.5297 9.5 30.0443 9.22C29.5777 8.94 29.0363 8.8 28.4203 8.8C27.823 8.8 27.2817 8.94 26.7963 9.22C26.3297 9.5 25.947 9.91067 25.6483 10.452C25.3683 10.9747 25.2283 11.6187 25.2283 12.384C25.2283 13.1493 25.3683 13.812 25.6483 14.372C25.947 14.9133 26.3297 15.324 26.7963 15.604C27.2817 15.884 27.823 16.024 28.4203 16.024ZM39.4834 20V4.824H44.7754V10.452H50.2354V4.824H55.5554V20H50.2354V14.68H44.7754V20H39.4834ZM69.6716 17.676V9.052H65.6116L65.5556 10.508C65.5182 11.236 65.4716 11.9267 65.4156 12.58C65.3782 13.2147 65.2849 13.7933 65.1356 14.316C64.9862 14.8387 64.7716 15.2867 64.4916 15.66C64.2116 16.0147 63.8382 16.276 63.3716 16.444L58.1636 15.744C58.6676 15.744 59.0782 15.604 59.3956 15.324C59.7316 15.0253 59.9929 14.6147 60.1796 14.092C60.3662 13.5693 60.4969 12.972 60.5716 12.3C60.6649 11.6093 60.7302 10.8813 60.7676 10.116L60.9636 4.824H74.9916V17.676H69.6716ZM57.6596 23.136V15.744H77.0916V23.136H72.1636V20H62.6156V23.136H57.6596ZM79.3779 20V4.824H84.6699V12.776L91.0259 4.824H95.9259V20H90.6059V12.02L84.3059 20H79.3779ZM102.891 20V7.876L104.039 9.052H97.9909V4.824H113.055V9.052H107.007L108.183 7.876V20H102.891ZM122.327 20.252C120.535 20.252 118.967 19.916 117.623 19.244C116.297 18.5533 115.261 17.62 114.515 16.444C113.787 15.2493 113.423 13.896 113.423 12.384C113.423 10.872 113.777 9.528 114.487 8.352C115.215 7.15733 116.213 6.23333 117.483 5.58C118.752 4.908 120.18 4.572 121.767 4.572C123.26 4.572 124.623 4.88 125.855 5.496C127.087 6.09333 128.067 6.98 128.795 8.156C129.523 9.332 129.887 10.76 129.887 12.44C129.887 12.6267 129.877 12.8413 129.859 13.084C129.84 13.3267 129.821 13.5507 129.803 13.756H117.791V10.956H126.975L124.959 11.74C124.977 11.0493 124.847 10.452 124.567 9.948C124.305 9.444 123.932 9.052 123.447 8.772C122.98 8.492 122.429 8.352 121.795 8.352C121.16 8.352 120.6 8.492 120.115 8.772C119.648 9.052 119.284 9.45333 119.023 9.976C118.761 10.48 118.631 11.0773 118.631 11.768V12.58C118.631 13.3267 118.78 13.9707 119.079 14.512C119.396 15.0533 119.844 15.4733 120.423 15.772C121.001 16.052 121.692 16.192 122.495 16.192C123.241 16.192 123.876 16.0893 124.399 15.884C124.94 15.66 125.472 15.324 125.995 14.876L128.795 17.788C128.067 18.5907 127.171 19.2067 126.107 19.636C125.043 20.0467 123.783 20.252 122.327 20.252ZM142.246 20.252C140.958 20.252 139.857 19.972 138.942 19.412C138.028 18.8333 137.328 17.9747 136.842 16.836C136.376 15.6787 136.142 14.204 136.142 12.412C136.142 10.6013 136.366 9.12667 136.814 7.988C137.262 6.83067 137.934 5.972 138.83 5.412C139.745 4.852 140.884 4.572 142.246 4.572C143.628 4.572 144.878 4.89867 145.998 5.552C147.137 6.18667 148.033 7.092 148.686 8.268C149.358 9.42533 149.694 10.8067 149.694 12.412C149.694 14.0173 149.358 15.408 148.686 16.584C148.033 17.76 147.137 18.6653 145.998 19.3C144.878 19.9347 143.628 20.252 142.246 20.252ZM132.698 25.432V4.824H137.766V7.4L137.738 12.412L138.018 17.452V25.432H132.698ZM141.126 16.024C141.724 16.024 142.256 15.884 142.722 15.604C143.208 15.324 143.59 14.9133 143.87 14.372C144.169 13.8307 144.318 13.1773 144.318 12.412C144.318 11.6467 144.169 10.9933 143.87 10.452C143.59 9.91067 143.208 9.5 142.722 9.22C142.256 8.94 141.724 8.8 141.126 8.8C140.529 8.8 139.988 8.94 139.502 9.22C139.036 9.5 138.653 9.91067 138.354 10.452C138.074 10.9933 137.934 11.6467 137.934 12.412C137.934 13.1773 138.074 13.8307 138.354 14.372C138.653 14.9133 139.036 15.324 139.502 15.604C139.988 15.884 140.529 16.024 141.126 16.024ZM162.889 20L158.269 12.916L162.553 10.396L169.161 20H162.889ZM152.249 20V4.824H157.569V20H152.249ZM156.001 14.596V10.424H161.489V14.596H156.001ZM163.085 13L158.101 12.496L163.197 4.824H168.825L163.085 13ZM179.639 20V17.172L179.275 16.472V11.264C179.275 10.424 179.014 9.78 178.491 9.332C177.987 8.86533 177.175 8.632 176.055 8.632C175.327 8.632 174.59 8.75333 173.843 8.996C173.097 9.22 172.462 9.53733 171.939 9.948L170.147 6.336C171.006 5.776 172.033 5.34667 173.227 5.048C174.441 4.73067 175.645 4.572 176.839 4.572C179.303 4.572 181.207 5.14133 182.551 6.28C183.914 7.4 184.595 9.164 184.595 11.572V20H179.639ZM175.159 20.252C173.946 20.252 172.919 20.0467 172.079 19.636C171.239 19.2253 170.595 18.6653 170.147 17.956C169.718 17.2467 169.503 16.4533 169.503 15.576C169.503 14.6427 169.737 13.84 170.203 13.168C170.689 12.4773 171.426 11.9547 172.415 11.6C173.405 11.2267 174.683 11.04 176.251 11.04H179.835V13.812H176.979C176.121 13.812 175.514 13.952 175.159 14.232C174.823 14.512 174.655 14.8853 174.655 15.352C174.655 15.8187 174.833 16.192 175.187 16.472C175.542 16.752 176.027 16.892 176.643 16.892C177.222 16.892 177.745 16.752 178.211 16.472C178.697 16.1733 179.051 15.7253 179.275 15.128L180.003 17.088C179.723 18.1333 179.173 18.9267 178.351 19.468C177.549 19.9907 176.485 20.252 175.159 20.252Z" fill="#A2983C"/>
</svg>
