<svg width="50" height="50" viewBox="0 0 50 50" fill="none" xmlns="http://www.w3.org/2000/svg">
<path d="M15.9396 29.6702C15.9396 33.0047 14.4372 35.7078 12.5839 35.7078C10.7305 35.7078 9.22815 33.0047 9.22815 29.6702C9.22815 26.3358 10.7305 23.6327 12.5839 23.6327C14.4372 23.6327 15.9396 26.3358 15.9396 29.6702Z" fill="white"/>
<path d="M19.9664 33.8103C23.2097 33.8103 25.8389 35.3549 25.8389 37.2603C25.8389 39.1657 23.2097 40.7103 19.9664 40.7103C16.7231 40.7103 14.0939 39.1657 14.0939 37.2603C14.0939 35.3549 16.7231 33.8103 19.9664 33.8103Z" fill="white"/>
<path d="M30.3691 15.8701C30.3691 19.2046 28.8667 21.9077 27.0134 21.9077C25.1601 21.9077 23.6577 19.2046 23.6577 15.8701C23.6577 12.5357 25.1601 9.83257 27.0134 9.83257C28.8667 9.83257 30.3691 12.5357 30.3691 15.8701Z" fill="white"/>
<path d="M34.3959 20.0102C37.6392 20.0102 40.2684 21.5548 40.2684 23.4602C40.2684 25.3656 37.6392 26.9102 34.3959 26.9102C31.1527 26.9102 28.5235 25.3656 28.5235 23.4602C28.5235 21.5548 31.1527 20.0102 34.3959 20.0102Z" fill="white"/>
<path d="M22.651 22.7702C22.651 26.1046 21.1486 28.8077 19.2953 28.8077C17.442 28.8077 15.9396 26.1046 15.9396 22.7702C15.9396 19.4357 17.442 16.7326 19.2953 16.7326C21.1486 16.7326 22.651 19.4357 22.651 22.7702Z" fill="white"/>
<path d="M26.6778 26.9102C29.9211 26.9102 32.5503 28.4548 32.5503 30.3602C32.5503 32.2656 29.9211 33.8103 26.6778 33.8103C23.4345 33.8103 20.8053 32.2656 20.8053 30.3602C20.8053 28.4548 23.4345 26.9102 26.6778 26.9102Z" fill="white"/>
<path d="M26.8456 7.07255C26.8456 6.97728 26.9207 6.90005 27.0134 6.90005C27.1061 6.90005 27.1812 6.97728 27.1812 7.07255V10.0051H26.8456V7.07255Z" fill="#D9D9D9"/>
<path d="M42.953 23.2877C43.0456 23.2877 43.1208 23.3649 43.1208 23.4602C43.1208 23.5555 43.0456 23.6327 42.953 23.6327H40.1006V23.2877H42.953Z" fill="#D9D9D9"/>
<path d="M37.2483 8.97007C37.2483 12.3045 35.7459 15.0076 33.8926 15.0076C32.0393 15.0076 30.5369 12.3045 30.5369 8.97007C30.5369 5.63563 32.0393 2.93252 33.8926 2.93252C35.7459 2.93252 37.2483 5.63563 37.2483 8.97007Z" fill="white"/>
<path d="M41.1073 13.1101C44.3506 13.1101 46.9798 14.6547 46.9798 16.5601C46.9798 18.4655 44.3506 20.0102 41.1073 20.0102C37.8641 20.0102 35.2349 18.4655 35.2349 16.5601C35.2349 14.6547 37.8641 13.1101 41.1073 13.1101Z" fill="white"/>
<path d="M33.7248 0.172501C33.7248 0.0772316 33.7999 0 33.8926 0C33.9852 0 34.0604 0.0772315 34.0604 0.172501V3.10502H33.7248V0.172501Z" fill="#D9D9D9"/>
<path d="M49.8322 16.3876C49.9248 16.3876 50 16.4649 50 16.5601C50 16.6554 49.9248 16.7326 49.8322 16.7326H46.9798V16.3876H49.8322Z" fill="#D9D9D9"/>
<path d="M39.7229 5.48029C42.0163 3.12248 44.9377 2.30332 46.2482 3.65064C47.5587 4.99796 46.7619 8.00156 44.4686 10.3594C42.1752 12.7172 39.2538 13.5363 37.9433 12.189C36.6328 10.8417 37.4296 7.8381 39.7229 5.48029Z" fill="white"/>
<path d="M48.0279 1.57703C48.0934 1.50967 48.1996 1.50967 48.2651 1.57703C48.3307 1.6444 48.3307 1.75362 48.2651 1.82099L46.2482 3.89459L46.0109 3.65064L48.0279 1.57703Z" fill="#D9D9D9"/>
<path d="M35.2349 30.1877C35.3275 30.1877 35.4026 30.265 35.4026 30.3602C35.4026 30.4555 35.3275 30.5327 35.2349 30.5327H32.3825V30.1877H35.2349Z" fill="#D9D9D9"/>
<path d="M28.5235 37.0878C28.6161 37.0878 28.6912 37.165 28.6912 37.2603C28.6912 37.3556 28.6161 37.4328 28.5235 37.4328H25.6711V37.0878H28.5235Z" fill="#D9D9D9"/>
<path d="M12.4161 20.8727C12.4161 20.7774 12.4912 20.7002 12.5839 20.7002C12.6765 20.7002 12.7516 20.7774 12.7516 20.8727V23.8052H12.4161V20.8727Z" fill="#D9D9D9"/>
<path d="M19.1275 13.9726C19.1275 13.8773 19.2026 13.8001 19.2953 13.8001C19.3879 13.8001 19.463 13.8773 19.463 13.9726V16.9051H19.1275V13.9726Z" fill="#D9D9D9"/>
<path d="M27.1812 12.0051H27.232C27.3413 12.1137 27.4807 12.2894 27.6381 12.5726C28.0511 13.3156 28.3691 14.4775 28.3691 15.8701C28.3691 17.2627 28.0511 18.4247 27.6381 19.1677C27.3323 19.7179 27.0943 19.8621 27.0134 19.898C26.9324 19.8621 26.6945 19.7179 26.3887 19.1677C25.9757 18.4247 25.6577 17.2627 25.6577 15.8701C25.6577 14.4775 25.9757 13.3156 26.3887 12.5726C26.5461 12.2894 26.6855 12.1137 26.7948 12.0051H26.8456H27.1812ZM37.5353 22.7451C37.8058 22.904 37.9865 23.0581 38.1006 23.1839V23.2877V23.6327V23.7365C37.9865 23.8623 37.8058 24.0164 37.5353 24.1753C36.8301 24.5896 35.7247 24.9102 34.3959 24.9102C33.0672 24.9102 31.9618 24.5896 31.2565 24.1753C30.9074 23.9702 30.7078 23.7731 30.608 23.6345C30.5603 23.5683 30.5399 23.5219 30.5315 23.4976C30.5237 23.4753 30.5235 23.4648 30.5235 23.4602C30.5235 23.4556 30.5237 23.4451 30.5315 23.4227C30.5399 23.3985 30.5603 23.3521 30.608 23.2858C30.7078 23.1473 30.9074 22.9502 31.2565 22.7451C31.9618 22.3308 33.0672 22.0102 34.3959 22.0102C35.7247 22.0102 36.8301 22.3308 37.5353 22.7451ZM33.2679 5.6725C33.4253 5.38932 33.5647 5.21369 33.674 5.10502H33.7248H34.0604H34.1112C34.2205 5.21369 34.3599 5.38932 34.5173 5.6725C34.9303 6.41551 35.2483 7.57745 35.2483 8.97007C35.2483 10.3627 34.9303 11.5246 34.5173 12.2676C34.2115 12.8179 33.9735 12.9621 33.8926 12.9979C33.8116 12.9621 33.5737 12.8179 33.2679 12.2676C32.8549 11.5246 32.5369 10.3627 32.5369 8.97007C32.5369 7.57745 32.8549 6.41551 33.2679 5.6725ZM43.8941 5.10177C44.1809 5.02135 44.3878 4.9982 44.5329 4.99947L44.5773 5.04511L44.8145 5.28906L44.8798 5.35614C44.8876 5.52427 44.868 5.76906 44.7767 6.11326C44.5567 6.94273 43.9833 7.98986 43.0349 8.96489C42.0851 9.94139 41.0769 10.5193 40.2974 10.7379C39.687 10.909 39.4388 10.8208 39.3773 10.7897C39.3467 10.7314 39.2238 10.4464 39.4148 9.7264C39.6348 8.89693 40.2082 7.8498 41.1566 6.87477C42.1064 5.89827 43.1146 5.32035 43.8941 5.10177ZM39.3613 10.7803C39.3613 10.7803 39.3618 10.7806 39.3626 10.7813L39.3613 10.7803ZM44.9718 16.5227C44.9796 16.545 44.9798 16.5555 44.9798 16.5601C44.9798 16.5647 44.9796 16.5752 44.9718 16.5976C44.9634 16.6218 44.9429 16.6682 44.8952 16.7345C44.7955 16.873 44.5959 17.0701 44.2467 17.2752C43.5415 17.6895 42.4361 18.0102 41.1073 18.0102C39.7786 18.0102 38.6732 17.6895 37.968 17.2752C37.6188 17.0701 37.4192 16.873 37.3195 16.7345C37.2717 16.6682 37.2513 16.6218 37.2429 16.5976C37.2351 16.5752 37.2349 16.5647 37.2349 16.5601C37.2349 16.5555 37.2351 16.545 37.2429 16.5227C37.2513 16.4984 37.2717 16.4521 37.3195 16.3858C37.4192 16.2472 37.6188 16.0501 37.968 15.845C38.6732 15.4307 39.7786 15.1101 41.1073 15.1101C42.4361 15.1101 43.5415 15.4307 44.2467 15.845C44.5959 16.0501 44.7955 16.2472 44.8952 16.3858C44.9429 16.4521 44.9634 16.4984 44.9718 16.5227ZM18.6706 19.4726C18.8279 19.1894 18.9674 19.0138 19.0766 18.9051H19.1275H19.463H19.5139C19.6232 19.0138 19.7626 19.1894 19.92 19.4726C20.3329 20.2156 20.651 21.3776 20.651 22.7702C20.651 24.1628 20.3329 25.3247 19.92 26.0677C19.6142 26.618 19.3762 26.7622 19.2953 26.798C19.2143 26.7622 18.9764 26.618 18.6706 26.0677C18.2576 25.3247 17.9396 24.1628 17.9396 22.7702C17.9396 21.3776 18.2576 20.2156 18.6706 19.4726ZM29.8172 29.6451C30.0877 29.804 30.2684 29.9581 30.3825 30.0839V30.1877V30.5327V30.6366C30.2684 30.7623 30.0877 30.9164 29.8172 31.0753C29.112 31.4897 28.0066 31.8103 26.6778 31.8103C25.349 31.8103 24.2436 31.4897 23.5384 31.0753C23.1893 30.8702 22.9897 30.6731 22.8899 30.5346C22.8422 30.4683 22.8218 30.4219 22.8133 30.3977C22.8056 30.3753 22.8053 30.3648 22.8053 30.3602C22.8053 30.3556 22.8056 30.3451 22.8133 30.3228C22.8218 30.2985 22.8422 30.2522 22.8899 30.1859C22.9897 30.0474 23.1893 29.8503 23.5384 29.6451C24.2436 29.2308 25.349 28.9102 26.6778 28.9102C28.0066 28.9102 29.112 29.2308 29.8172 29.6451ZM11.9591 26.3727C12.1165 26.0895 12.2559 25.9139 12.3652 25.8052H12.4161H12.7516H12.8025C12.9118 25.9139 13.0512 26.0895 13.2086 26.3727C13.6215 27.1157 13.9396 28.2776 13.9396 29.6702C13.9396 31.0629 13.6215 32.2248 13.2086 32.9678C12.9028 33.518 12.6648 33.6622 12.5839 33.6981C12.5029 33.6622 12.265 33.518 11.9591 32.9678C11.5462 32.2248 11.2281 31.0629 11.2281 29.6702C11.2281 28.2776 11.5462 27.1157 11.9591 26.3727ZM23.1058 36.5452C23.3763 36.7041 23.557 36.8582 23.6711 36.984V37.0878V37.4328V37.5366C23.557 37.6624 23.3763 37.8165 23.1058 37.9754C22.4006 38.3897 21.2952 38.7103 19.9664 38.7103C18.6376 38.7103 17.5322 38.3897 16.827 37.9754C16.4779 37.7703 16.2783 37.5732 16.1785 37.4346C16.1308 37.3684 16.1104 37.322 16.1019 37.2977C16.0942 37.2754 16.0939 37.2649 16.0939 37.2603C16.0939 37.2557 16.0942 37.2452 16.1019 37.2229C16.1104 37.1986 16.1308 37.1522 16.1785 37.0859C16.2783 36.9474 16.4779 36.7503 16.827 36.5452C17.5322 36.1309 18.6376 35.8103 19.9664 35.8103C21.2952 35.8103 22.4006 36.1309 23.1058 36.5452Z" stroke="black" stroke-width="4"/>
<rect y="1.21977" width="1.7016" height="15.3144" rx="0.850798" transform="matrix(0.69724 0.716838 -0.69724 0.716838 12.7147 35.7081)" fill="white" stroke="black" stroke-width="1.7016"/>
</svg>
